<svg xmlns="http://www.w3.org/2000/svg" width="43" height="43" viewBox="0 0 43 43">
  <g id="Group_1034" data-name="Group 1034" transform="translate(-150 -278)">
    <path id="Icon_awesome-people-carry" data-name="Icon awesome-people-carry" d="M4.739,3.555A1.777,1.777,0,1,0,2.962,1.777,1.778,1.778,0,0,0,4.739,3.555Zm14.218,0A1.777,1.777,0,1,0,17.18,1.777,1.778,1.778,0,0,0,18.957,3.555Zm4.654,13.777-1.629-4.073L20.46,14.977l-.074.674,1.026,2.562a1.184,1.184,0,0,0,1.1.744,1.151,1.151,0,0,0,.441-.085A1.184,1.184,0,0,0,23.611,17.332ZM22.345,9.564l-.685-2.97a2.4,2.4,0,0,0-1.388-1.662,2.285,2.285,0,0,0-2.077.122,4.057,4.057,0,0,0-1.781,2.2l-.418,1.255-.592.378V5.332a.594.594,0,0,0-.592-.592H8.886a.594.594,0,0,0-.592.592V8.886l-.6-.378L7.279,7.253A4.028,4.028,0,0,0,5.5,5.054a2.285,2.285,0,0,0-2.077-.122A2.4,2.4,0,0,0,2.032,6.594l-.681,2.97a2.372,2.372,0,0,0,.533,2.1l2.488,2.81L4.746,17.9a1.186,1.186,0,0,0,1.177,1.055c.044,0,.085,0,.13-.007A1.183,1.183,0,0,0,7.1,17.643l-.374-3.436a2.366,2.366,0,0,0-.578-1.3L4.546,11.1l.652-2.6.252.755a2.4,2.4,0,0,0,.907,1.207l1.892,1.2a1.576,1.576,0,0,0,.637.185H14.81a1.576,1.576,0,0,0,.637-.185l1.892-1.2a2.38,2.38,0,0,0,.907-1.207l.252-.755.652,2.6-1.6,1.814a2.366,2.366,0,0,0-.578,1.3l-.374,3.436a1.186,1.186,0,0,0,1.048,1.307c.044,0,.085.007.13.007A1.185,1.185,0,0,0,18.95,17.9l.374-3.429,2.488-2.81a2.383,2.383,0,0,0,.533-2.1Zm-20.631,3.7L.085,17.332a1.185,1.185,0,0,0,2.2.881L3.31,15.651l-.074-.674L1.714,13.259Z" transform="translate(160.001 289.477)" fill="#098e93"/>
    <g id="Ellipse_166" data-name="Ellipse 166" transform="translate(150 278)" fill="none" stroke="#098e93" stroke-width="1">
      <circle cx="21.5" cy="21.5" r="21.5" stroke="none"/>
      <circle cx="21.5" cy="21.5" r="21" fill="none"/>
    </g>
  </g>
</svg>
