<svg xmlns="http://www.w3.org/2000/svg" width="43" height="43" viewBox="0 0 43 43">
  <g id="Group_1036" data-name="Group 1036" transform="translate(-150 -428)">
    <path id="Icon_material-group" data-name="Icon material-group" d="M21.667,15.567a4.033,4.033,0,1,0-4.033-4.033A4.017,4.017,0,0,0,21.667,15.567Zm-10.756,0a4.033,4.033,0,1,0-4.033-4.033A4.017,4.017,0,0,0,10.911,15.567Zm0,2.689c-3.133,0-9.411,1.573-9.411,4.706v3.361H20.322V22.961C20.322,19.829,14.044,18.256,10.911,18.256Zm10.756,0c-.39,0-.834.027-1.3.067a5.674,5.674,0,0,1,2.649,4.638v3.361h8.067V22.961C31.078,19.829,24.8,18.256,21.667,18.256Z" transform="translate(155.5 433.093)" fill="#098e93"/>
    <g id="Ellipse_166" data-name="Ellipse 166" transform="translate(150 428)" fill="none" stroke="#098e93" stroke-width="1">
      <circle cx="21.5" cy="21.5" r="21.5" stroke="none"/>
      <circle cx="21.5" cy="21.5" r="21" fill="none"/>
    </g>
  </g>
</svg>
