<svg xmlns="http://www.w3.org/2000/svg" width="18.996" height="19" viewBox="0 0 18.996 19">
  <path id="Icon_simple-googlepodcasts" data-name="Icon simple-googlepodcasts" d="M1.187,7.662A1.186,1.186,0,0,0,0,8.849v1.29a1.187,1.187,0,0,0,2.375,0V8.849A1.186,1.186,0,0,0,1.187,7.662Zm16.622,0a1.186,1.186,0,0,0-1.187,1.187v1.29a1.187,1.187,0,1,0,2.375,0V8.849A1.186,1.186,0,0,0,17.809,7.662ZM5.287,11.548A1.186,1.186,0,0,0,4.1,12.735v1.29a1.187,1.187,0,0,0,2.375,0V12.743a1.186,1.186,0,0,0-1.187-1.187Zm0-7.773A1.186,1.186,0,0,0,4.1,4.963V9.205a1.187,1.187,0,0,0,2.375,0V4.955A1.186,1.186,0,0,0,5.287,3.768Zm8.422,0a1.186,1.186,0,0,0-1.187,1.187v1.3a1.187,1.187,0,0,0,2.375,0v-1.3a1.186,1.186,0,0,0-1.187-1.187ZM9.5,0A1.186,1.186,0,0,0,8.311,1.187v1.29a1.187,1.187,0,0,0,2.375,0V1.187A1.186,1.186,0,0,0,9.5,0Zm0,15.324a1.186,1.186,0,0,0-1.187,1.187v1.3a1.187,1.187,0,0,0,2.375.008v-1.3A1.191,1.191,0,0,0,9.5,15.331Zm4.211-6.7a1.191,1.191,0,0,0-1.187,1.187v4.219a1.187,1.187,0,0,0,2.375,0V9.815A1.186,1.186,0,0,0,13.709,8.627ZM9.5,4.852A1.191,1.191,0,0,0,8.311,6.039v6.91a1.187,1.187,0,0,0,2.375,0v-6.9A1.186,1.186,0,0,0,9.5,4.86Z" fill="#0d3a67"/>
</svg>
