<svg xmlns="http://www.w3.org/2000/svg" width="46.037" height="29.196" viewBox="0 0 46.037 29.196">
  <path id="Icon_simple-pingdom" data-name="Icon simple-pingdom" d="M22.942,26.905l15.267-5.138L24.688,32.722a18.051,18.051,0,0,0-1.746-5.816v0Zm23.1-10.115a106.319,106.319,0,0,0-28.94,2.9,22.84,22.84,0,0,1,4.863,5.478c7.753-3.4,18.5-7.751,24.078-8.368V16.79Zm-24.12.416.4-.091c2.95-.694,5.849-1.536,8.676-2.505a34.825,34.825,0,0,0,7.978-3.581A14.214,14.214,0,0,0,44.56,4.793a4.97,4.97,0,0,0,.512-1.266C41.19,7.7,25.812,8.138,25.812,8.138l3.625-2.623A60.3,60.3,0,0,0,0,13.049a31.617,31.617,0,0,1,15.612,5.5c2.083-.508,4.212-.871,6.3-1.33v-.009l0,0Z" transform="translate(0 -3.526)" fill="#088383"/>
</svg>
