<svg id="Icon_ionic-ios-notifications" data-name="Icon ionic-ios-notifications" xmlns="http://www.w3.org/2000/svg" width="19.63" height="24.551" viewBox="0 0 19.63 24.551">
  <path id="Path_62" data-name="Path 62" d="M17.564,31.591c1.91,0,2.954-1.351,2.954-3.255H14.6C14.6,30.24,15.648,31.591,17.564,31.591Z" transform="translate(-7.761 -7.039)" fill="#fff"/>
  <path id="Path_63" data-name="Path 63" d="M26.142,22.109c-.945-1.245-2.8-1.976-2.8-7.553,0-5.724-2.528-8.025-4.884-8.577-.221-.055-.38-.129-.38-.362V5.44a1.5,1.5,0,1,0-2.995,0v.178c0,.227-.16.307-.38.362-2.362.558-4.884,2.853-4.884,8.577,0,5.577-1.859,6.3-2.8,7.553a1.218,1.218,0,0,0,.976,1.951H25.172A1.218,1.218,0,0,0,26.142,22.109Z" transform="translate(-6.761 -3.93)" fill="#fff"/>
</svg>
