<svg xmlns="http://www.w3.org/2000/svg" width="32.634" height="31.861" viewBox="0 0 32.634 31.861">
  <path id="Icon_awesome-building" data-name="Icon awesome-building" d="M31.76,29.87H30.3V1.493A1.636,1.636,0,0,0,28.555,0H4.079A1.636,1.636,0,0,0,2.331,1.493V29.87H.874A.818.818,0,0,0,0,30.616v1.245H32.634V30.616A.818.818,0,0,0,31.76,29.87ZM9.324,4.729a.818.818,0,0,1,.874-.747h2.914a.818.818,0,0,1,.874.747V7.218a.818.818,0,0,1-.874.747H10.2a.818.818,0,0,1-.874-.747Zm0,5.974a.818.818,0,0,1,.874-.747h2.914a.818.818,0,0,1,.874.747v2.489a.818.818,0,0,1-.874.747H10.2a.818.818,0,0,1-.874-.747Zm3.788,9.21H10.2a.818.818,0,0,1-.874-.747V16.677a.818.818,0,0,1,.874-.747h2.914a.818.818,0,0,1,.874.747v2.489A.818.818,0,0,1,13.112,19.913Zm5.536,9.957H13.986V24.642a.818.818,0,0,1,.874-.747h2.914a.818.818,0,0,1,.874.747Zm4.662-10.7a.818.818,0,0,1-.874.747H19.522a.818.818,0,0,1-.874-.747V16.677a.818.818,0,0,1,.874-.747h2.914a.818.818,0,0,1,.874.747Zm0-5.974a.818.818,0,0,1-.874.747H19.522a.818.818,0,0,1-.874-.747V10.7a.818.818,0,0,1,.874-.747h2.914a.818.818,0,0,1,.874.747Zm0-5.974a.818.818,0,0,1-.874.747H19.522a.818.818,0,0,1-.874-.747V4.729a.818.818,0,0,1,.874-.747h2.914a.818.818,0,0,1,.874.747Z" fill="#088383"/>
</svg>
