<svg xmlns="http://www.w3.org/2000/svg" width="27.286" height="27.183" viewBox="0 0 27.286 27.183">
  <path id="Icon_awesome-pushed" data-name="Icon awesome-pushed" d="M17.915,5.768l-4.335-.4L14.2,3.9a1.147,1.147,0,0,0-1.263-1.629L.991,4.228A1.263,1.263,0,0,0,.049,5.839l4.626,15.33a1.2,1.2,0,0,0,2.1.308l1.554-3.556L18.681,7.74a1.166,1.166,0,0,0-.766-1.972ZM13.1,3.2c.224-.031.33.11.229.326l-.739,1.756L4.781,4.567ZM1,5.592a.257.257,0,0,1,.268-.4l10.946,1L7.95,16.345ZM5.987,20.931a.226.226,0,0,1-.414-.053L1.916,8.753l5.621,8.7C7.228,18.11,5.987,20.931,5.987,20.931ZM17.994,7.089l-8.746,8.6L13.2,6.283l4.683.427a.221.221,0,0,1,.114.379Z" transform="translate(17.072 -1.421) rotate(51)" fill="#0d3a67"/>
</svg>
